<svg width="157" height="35" viewBox="0 0 157 35" fill="none" xmlns="http://www.w3.org/2000/svg">
<path d="M16.6284 20.5059H6.20361L3.8623 27H0.478516L9.98047 2.11719H12.8516L22.3706 27H19.0039L16.6284 20.5059ZM7.19482 17.8057H15.6543L11.416 6.16748L7.19482 17.8057Z" fill="#383838"/>
<path d="M28.6597 27H25.498V0.75H28.6597V27Z" fill="#383838"/>
<path d="M36.709 8.50879L36.7944 10.5596C38.1502 8.96452 39.9788 8.16699 42.2803 8.16699C44.8665 8.16699 46.6268 9.1582 47.561 11.1406C48.1763 10.252 48.9738 9.53418 49.9536 8.9873C50.9448 8.44043 52.1126 8.16699 53.457 8.16699C57.513 8.16699 59.5752 10.3146 59.6436 14.6099V27H56.4819V14.7979C56.4819 13.4762 56.18 12.4907 55.5762 11.8413C54.9723 11.1805 53.9583 10.8501 52.5342 10.8501C51.3607 10.8501 50.3866 11.2033 49.6118 11.9097C48.8371 12.6047 48.387 13.5446 48.2617 14.7295V27H45.083V14.8833C45.083 12.1945 43.7671 10.8501 41.1353 10.8501C39.0617 10.8501 37.6432 11.7331 36.8799 13.499V27H33.7183V8.50879H36.709Z" fill="#383838"/>
<path d="M67.8638 27H64.7021V8.50879H67.8638V27ZM64.4458 3.604C64.4458 3.09131 64.5996 2.65837 64.9072 2.30518C65.2262 1.95199 65.6934 1.77539 66.3086 1.77539C66.9238 1.77539 67.391 1.95199 67.71 2.30518C68.029 2.65837 68.1885 3.09131 68.1885 3.604C68.1885 4.1167 68.029 4.54395 67.71 4.88574C67.391 5.22754 66.9238 5.39844 66.3086 5.39844C65.6934 5.39844 65.2262 5.22754 64.9072 4.88574C64.5996 4.54395 64.4458 4.1167 64.4458 3.604Z" fill="#383838"/>
<path d="M81.8774 11.3457C81.3989 11.266 80.8805 11.2261 80.3223 11.2261C78.2487 11.2261 76.8416 12.109 76.1011 13.875V27H72.9395V8.50879H76.0156L76.0669 10.645C77.1037 8.993 78.5734 8.16699 80.4761 8.16699C81.0913 8.16699 81.5584 8.24674 81.8774 8.40625V11.3457Z" fill="#383838"/>
<path d="M106.453 4.03125V8.50879H109.905V10.9526H106.453V22.4199C106.453 23.1605 106.606 23.7188 106.914 24.0947C107.222 24.4593 107.746 24.6416 108.486 24.6416C108.851 24.6416 109.352 24.5732 109.99 24.4365V27C109.159 27.2279 108.35 27.3418 107.563 27.3418C106.151 27.3418 105.085 26.9146 104.368 26.0601C103.65 25.2056 103.291 23.9922 103.291 22.4199V10.9526H99.9243V8.50879H103.291V4.03125H106.453Z" fill="#383838"/>
<path d="M117.048 27H113.887V8.50879H117.048V27ZM113.63 3.604C113.63 3.09131 113.784 2.65837 114.092 2.30518C114.411 1.95199 114.878 1.77539 115.493 1.77539C116.108 1.77539 116.576 1.95199 116.895 2.30518C117.214 2.65837 117.373 3.09131 117.373 3.604C117.373 4.1167 117.214 4.54395 116.895 4.88574C116.576 5.22754 116.108 5.39844 115.493 5.39844C114.878 5.39844 114.411 5.22754 114.092 4.88574C113.784 4.54395 113.63 4.1167 113.63 3.604Z" fill="#383838"/>
<path d="M125.115 8.50879L125.217 10.833C126.63 9.05566 128.476 8.16699 130.754 8.16699C134.662 8.16699 136.633 10.3716 136.667 14.7808V27H133.506V14.7637C133.494 13.4307 133.187 12.4451 132.583 11.8071C131.991 11.1691 131.062 10.8501 129.797 10.8501C128.772 10.8501 127.872 11.1235 127.097 11.6704C126.322 12.2173 125.719 12.9351 125.286 13.8237V27H122.124V8.50879H125.115Z" fill="#383838"/>
<path d="M140.684 17.6006C140.684 14.7181 141.35 12.4281 142.683 10.7305C144.016 9.02148 145.782 8.16699 147.981 8.16699C150.237 8.16699 151.997 8.96452 153.262 10.5596L153.416 8.50879H156.304V26.5557C156.304 28.9482 155.592 30.8338 154.167 32.2124C152.755 33.591 150.852 34.2803 148.459 34.2803C147.126 34.2803 145.822 33.9954 144.546 33.4258C143.27 32.8561 142.296 32.0757 141.624 31.0845L143.264 29.1875C144.62 30.8623 146.278 31.6997 148.237 31.6997C149.775 31.6997 150.972 31.2668 151.826 30.4009C152.692 29.535 153.125 28.3159 153.125 26.7437V25.1543C151.86 26.6126 150.134 27.3418 147.947 27.3418C145.782 27.3418 144.028 26.4702 142.683 24.7271C141.35 22.9839 140.684 20.6084 140.684 17.6006ZM143.862 17.9595C143.862 20.0444 144.29 21.6851 145.144 22.8813C145.999 24.0662 147.195 24.6587 148.733 24.6587C150.727 24.6587 152.191 23.7529 153.125 21.9414V13.499C152.157 11.7331 150.704 10.8501 148.767 10.8501C147.229 10.8501 146.027 11.4482 145.161 12.6445C144.295 13.8408 143.862 15.6125 143.862 17.9595Z" fill="#383838"/>
<path d="M92.4463 18.438L94.4287 20.5059V27H97.5903V0.75H94.4287V16.6265L92.7368 14.5928L86.9775 8.50879H83.1323L90.3271 16.2334L82.2949 27H86.0034L92.4463 18.438Z" fill="#383838"/>
</svg>
