<svg width="743" height="202" viewBox="0 0 743 202" fill="none" xmlns="http://www.w3.org/2000/svg">
<path d="M181.482 157.134C184.498 157.134 187.398 155.51 190.182 152.262L192.792 154.35C192.444 154.814 191.98 155.394 191.4 156.09C190.82 156.786 189.37 157.714 187.05 158.874C184.846 160.034 182.41 160.614 179.742 160.614C166.75 160.614 160.254 154.988 160.254 143.736C160.254 140.256 160.66 135.094 161.472 128.25C155.904 129.99 150.916 130.86 146.508 130.86C138.736 130.86 130.964 128.482 123.192 123.726C118.668 131.498 114.434 138.168 110.49 143.736C106.546 149.188 101.964 154.524 96.744 159.744C85.956 170.3 72.906 175.578 57.594 175.578C42.398 175.578 30.276 170.706 21.228 160.962C13.224 152.03 9.222 141.184 9.222 128.424C9.222 115.548 13.34 104.122 21.576 94.146C29.812 84.17 40.484 79.182 53.592 79.182C66.7 79.182 76.676 83.068 83.52 90.84C85.144 92.928 86.304 94.494 87 95.538C93.264 98.206 100.398 102.614 108.402 108.762C114.434 113.634 118.9 116.998 121.8 118.854C123.424 115.838 125.628 111.778 128.412 106.674C131.312 101.57 133.516 97.684 135.024 95.016C136.532 92.348 138.794 88.578 141.81 83.706C144.826 78.834 147.262 75.18 149.118 72.744C151.09 70.192 153.642 67.06 156.774 63.348C160.022 59.52 162.98 56.678 165.648 54.822C173.652 49.138 180.38 45.832 185.832 44.904C188.848 44.44 191.4 44.208 193.488 44.208C195.576 44.208 197.896 44.266 200.448 44.382C203 44.382 206.596 45.02 211.236 46.296L210.366 49.602C207.582 48.79 204.624 48.21 201.492 47.862C189.892 93.45 183.222 129.874 181.482 157.134ZM92.568 115.722C92.568 124.306 90.074 131.904 85.086 138.516C80.214 145.128 73.602 148.434 65.25 148.434C59.798 148.434 55.332 146.81 51.852 143.562C48.488 140.314 46.806 136.95 46.806 133.47C46.806 129.99 47.328 127.148 48.372 124.944C49.416 122.624 50.576 120.884 51.852 119.724C53.244 118.564 54.752 117.636 56.376 116.94C58.58 115.78 60.32 115.2 61.596 115.2L61.944 118.68C59.044 118.68 56.376 120.072 53.94 122.856C51.504 125.64 50.286 128.772 50.286 132.252C50.286 135.732 51.62 138.748 54.288 141.3C57.072 143.736 60.726 144.954 65.25 144.954C72.674 144.954 78.532 142.054 82.824 136.254C87.116 130.454 89.262 124.016 89.262 116.94C89.262 109.864 87.812 103.716 84.912 98.496C78.532 96.06 72.21 94.842 65.946 94.842C53.882 94.842 45.356 100.468 40.368 111.72L37.062 110.676C38.338 107.776 40.368 104.644 43.152 101.28C48.604 94.668 56.202 91.362 65.946 91.362C71.166 91.362 76.328 92.116 81.432 93.624L81.084 93.102C74.704 86.142 65.482 82.662 53.418 82.662C41.47 82.662 31.668 87.302 24.012 96.582C16.472 105.862 12.702 116.534 12.702 128.598C12.702 140.546 16.414 150.522 23.838 158.526C32.19 167.574 43.848 172.098 58.812 172.098C72.5 172.098 84.448 166.936 94.656 156.612C99.76 151.624 104.168 146.462 107.88 141.126C111.708 135.79 115.826 129.352 120.234 121.812C116.29 119.26 111.476 115.78 105.792 111.372C100.224 106.848 94.83 103.252 89.61 100.584C91.582 105.456 92.568 110.502 92.568 115.722ZM124.932 120.768C132.356 125.176 139.142 127.38 145.29 127.38C151.554 127.38 157.122 126.394 161.994 124.422C164.778 104.818 169.998 80.458 177.654 51.342C168.374 55.75 159.848 63.58 152.076 74.832C146.392 82.952 139.548 94.262 131.544 108.762L124.932 120.768ZM267.51 168.966C271.686 168.966 275.282 167.342 278.298 164.094L280.734 166.182C277.95 170.126 273.542 172.098 267.51 172.098C264.958 172.098 262.348 171.808 259.68 171.228C251.792 178.42 241.7 182.016 229.404 182.016C222.096 182.016 216.412 180.74 212.352 178.188C208.408 175.752 206.436 172.504 206.436 168.444C206.436 164.5 207.654 161.31 210.09 158.874C212.642 156.554 217.108 155.394 223.488 155.394C229.868 155.394 238.278 158.004 248.718 163.224L254.112 134.34C248.892 143.968 242.164 148.782 233.928 148.782C218.152 148.782 210.264 141.01 210.264 125.466C210.264 112.474 213.512 102.034 220.008 94.146C226.62 86.258 235.03 82.314 245.238 82.314C251.154 82.314 255.736 84.112 258.984 87.708C259.912 88.752 260.84 90.318 261.768 92.406L263.334 83.88C271.918 83.88 278.182 83.532 282.126 82.836L284.388 82.314L272.904 146.52C271.164 155.568 267.684 162.876 262.464 168.444C263.972 168.792 265.654 168.966 267.51 168.966ZM229.926 130.86C229.926 136.196 230.448 139.792 231.492 141.648C232.536 143.388 234.508 144.258 237.408 144.258C240.308 144.258 243.266 142.692 246.282 139.56C249.298 136.428 251.444 133.528 252.72 130.86C254.112 128.076 255.272 125.408 256.2 122.856L259.854 102.846V101.628C259.854 90.956 254.982 85.62 245.238 85.62C241.526 85.62 238.046 90.666 234.798 100.758C231.55 110.85 229.926 120.884 229.926 130.86ZM228.708 178.536C237.988 178.536 244.252 174.534 247.5 166.53L245.064 165.312C243.672 164.616 242.802 164.152 242.454 163.92C242.222 163.804 241.468 163.456 240.192 162.876C238.916 162.296 237.988 161.89 237.408 161.658C236.828 161.542 235.9 161.252 234.624 160.788C233.464 160.324 232.478 159.976 231.666 159.744C230.854 159.628 229.926 159.454 228.882 159.222C227.142 158.874 224.59 158.7 221.226 158.7C217.862 158.7 215.136 159.512 213.048 161.136C211.076 162.76 210.09 165.138 210.09 168.27C210.09 171.402 211.772 173.896 215.136 175.752C218.5 177.608 223.024 178.536 228.708 178.536ZM292.191 88.578C295.671 84.402 300.021 82.314 305.241 82.314C310.577 82.314 314.695 83.648 317.595 86.316C320.495 88.984 321.945 92.754 321.945 97.626V98.67C327.165 87.766 333.951 82.314 342.303 82.314C351.235 82.314 355.701 86.954 355.701 96.234C355.701 100.062 354.425 104.122 351.873 108.414C349.321 112.706 346.769 116.824 344.217 120.768C341.665 124.596 340.389 128.018 340.389 131.034H336.213C336.213 126.742 338.707 120.942 343.695 113.634C348.683 106.326 351.177 100.7 351.177 96.756C351.177 92.696 350.365 89.97 348.741 88.578C347.233 87.07 344.913 86.316 341.781 86.316C338.765 86.316 335.749 87.65 332.733 90.318C329.833 92.986 327.397 96.35 325.425 100.41C322.293 106.442 320.205 111.372 319.161 115.2V115.374L312.897 150H292.017L303.501 85.794C300.021 86.142 297.121 87.766 294.801 90.666L292.191 88.578ZM396.87 82.314C411.602 82.314 418.968 88.172 418.968 99.888C418.968 107.196 415.488 112.764 408.528 116.592C401.684 120.304 391.882 122.218 379.122 122.334C378.89 126.51 378.774 129.816 378.774 132.252C378.774 137.472 379.934 141.358 382.254 143.91C384.69 146.346 387.706 147.564 391.302 147.564C394.898 147.564 398.146 146.868 401.046 145.476C404.062 144.084 406.44 142.46 408.18 140.604C409.92 138.632 411.428 136.602 412.704 134.514C415.024 130.686 416.184 128.25 416.184 127.206L419.316 128.598C418.968 130.454 417.924 132.948 416.184 136.08C414.444 139.096 412.53 141.59 410.442 143.562C408.354 145.534 405.28 147.39 401.22 149.13C397.16 150.754 392.636 151.566 387.648 151.566C378.252 151.566 371.118 149.362 366.246 144.954C361.49 140.43 359.112 134.282 359.112 126.51C359.112 112.706 362.534 101.918 369.378 94.146C376.222 86.258 385.386 82.314 396.87 82.314ZM414.618 99.888C414.618 96.06 413.458 92.928 411.138 90.492C408.934 87.94 405.57 86.664 401.046 86.664C396.638 86.664 392.288 89.332 387.996 94.668C383.82 100.004 381.036 107.892 379.644 118.332C402.96 118.216 414.618 112.068 414.618 99.888ZM444.8 147.042C456.284 147.042 462.026 138.574 462.026 121.638C462.026 117.462 461.388 112.532 460.112 106.848C458.952 101.164 458.256 97.626 458.024 96.234C450.948 103.542 443.002 107.95 434.186 109.458V105.282C442.538 103.426 450.368 98.67 457.676 91.014V90.318C457.676 87.534 458.082 84.808 458.894 82.14C459.706 79.472 460.518 77.5 461.33 76.224L462.548 74.31H466.724C466.724 79.414 467.536 84.112 469.16 88.404C470.784 92.58 472.582 96.002 474.554 98.67C476.526 101.222 478.324 104.644 479.948 108.936C481.572 113.112 482.384 117.752 482.384 122.856C482.384 131.092 479.252 137.936 472.988 143.388C466.84 148.84 459.416 151.566 450.716 151.566C442.016 151.566 435.404 149.594 430.88 145.65C426.472 141.706 424.268 137.182 424.268 132.078C424.268 126.858 425.544 123.146 428.096 120.942C430.648 118.622 433.664 117.462 437.144 117.462C440.624 117.462 443.466 118.622 445.67 120.942C447.99 123.146 449.15 126.046 449.15 129.642C449.15 133.122 448.048 136.08 445.844 138.516C443.64 140.952 440.798 142.17 437.318 142.17C435.81 142.17 434.244 141.938 432.62 141.474C435.172 145.186 439.232 147.042 444.8 147.042ZM508.86 147.042C520.344 147.042 526.086 138.574 526.086 121.638C526.086 117.462 525.448 112.532 524.172 106.848C523.012 101.164 522.316 97.626 522.084 96.234C515.008 103.542 507.062 107.95 498.246 109.458V105.282C506.598 103.426 514.428 98.67 521.736 91.014V90.318C521.736 87.534 522.142 84.808 522.954 82.14C523.766 79.472 524.578 77.5 525.39 76.224L526.608 74.31H530.784C530.784 79.414 531.596 84.112 533.22 88.404C534.844 92.58 536.642 96.002 538.614 98.67C540.586 101.222 542.384 104.644 544.008 108.936C545.632 113.112 546.444 117.752 546.444 122.856C546.444 131.092 543.312 137.936 537.048 143.388C530.9 148.84 523.476 151.566 514.776 151.566C506.076 151.566 499.464 149.594 494.94 145.65C490.532 141.706 488.328 137.182 488.328 132.078C488.328 126.858 489.604 123.146 492.156 120.942C494.708 118.622 497.724 117.462 501.204 117.462C504.684 117.462 507.526 118.622 509.73 120.942C512.05 123.146 513.21 126.046 513.21 129.642C513.21 133.122 512.108 136.08 509.904 138.516C507.7 140.952 504.858 142.17 501.378 142.17C499.87 142.17 498.304 141.938 496.68 141.474C499.232 145.186 503.292 147.042 508.86 147.042ZM587.905 145.302C584.425 149.478 580.075 151.566 574.855 151.566C569.635 151.566 565.517 150.232 562.501 147.564C559.601 144.896 558.151 141.416 558.151 137.124C558.151 135.616 559.079 129.294 560.935 118.158L566.677 87.012H559.369L559.717 83.88H567.199C575.783 83.88 582.105 83.532 586.165 82.836L588.601 82.314L576.595 148.086C580.075 147.738 582.975 146.114 585.295 143.214L587.905 145.302ZM572.593 65.61C570.157 63.174 568.939 60.216 568.939 56.736C568.939 53.256 570.157 50.298 572.593 47.862C575.029 45.31 577.987 44.034 581.467 44.034C584.947 44.034 587.905 45.31 590.341 47.862C592.893 50.298 594.169 53.256 594.169 56.736C594.169 60.216 592.893 63.174 590.341 65.61C587.905 68.046 584.947 69.264 581.467 69.264C577.987 69.264 575.029 68.046 572.593 65.61ZM643.444 103.89C641.008 101.454 639.79 98.496 639.79 95.016C639.79 91.536 641.008 88.578 643.444 86.142C645.88 83.59 648.606 82.314 651.622 82.314C654.754 82.314 657.364 83.126 659.452 84.75C661.656 86.258 663.222 88.23 664.15 90.666C664.266 90.782 664.324 90.898 664.324 91.014V91.188C665.716 94.204 666.412 98.612 666.412 104.412C666.412 110.096 665.716 115.316 664.324 120.072C663.048 124.828 661.018 129.7 658.234 134.688C655.566 139.56 651.622 143.62 646.402 146.868C641.182 150 635.034 151.566 627.958 151.566C620.882 151.566 614.966 149.246 610.21 144.606C605.57 139.966 603.25 134.63 603.25 128.598C603.25 122.566 604.294 115.142 606.382 106.326C608.586 97.394 609.804 90.55 610.036 85.794C608.18 85.91 606.382 86.606 604.642 87.882C602.902 89.042 601.626 90.202 600.814 91.362L599.596 93.102L596.986 91.014C597.334 90.318 597.856 89.506 598.552 88.578C599.248 87.65 600.988 86.374 603.772 84.75C606.672 83.126 610.268 82.314 614.56 82.314C618.852 82.314 622.274 83.706 624.826 86.49C627.494 89.274 628.828 92.812 628.828 97.104C628.828 101.396 627.668 108.066 625.348 117.114C623.028 126.046 621.868 132.368 621.868 136.08C621.868 139.676 622.68 142.518 624.304 144.606C626.044 146.694 628.48 147.738 631.612 147.738C639.384 147.738 646.46 143.504 652.84 135.036C659.22 126.568 662.41 117.114 662.41 106.674C662.41 105.862 662.294 104.644 662.062 103.02C659.626 106.036 656.494 107.544 652.666 107.544C648.954 107.544 645.88 106.326 643.444 103.89ZM701.979 151.566C693.047 151.566 686.261 149.362 681.621 144.954C676.981 140.43 674.661 134.804 674.661 128.076C674.661 121.232 675.241 115.432 676.401 110.676C677.677 105.804 679.707 101.164 682.491 96.756C685.275 92.232 689.451 88.694 695.019 86.142C700.703 83.59 707.721 82.314 716.073 82.314C724.541 82.314 731.095 84.576 735.735 89.1C740.491 93.508 742.869 99.598 742.869 107.37C742.869 120.594 739.331 131.266 732.255 139.386C725.295 147.506 715.203 151.566 701.979 151.566ZM694.323 133.644C694.323 142.924 696.991 147.564 702.327 147.564C707.779 147.564 712.593 142.924 716.769 133.644C721.061 124.248 723.207 113.112 723.207 100.236C723.207 90.492 720.539 85.62 715.203 85.62C709.983 85.62 705.169 90.086 700.761 99.018C696.469 107.834 694.323 119.376 694.323 133.644Z" fill="#FF0000"/>
<path d="M267.181 22.4531L278.802 51.457L290.423 22.4531H296.502V58H291.814V44.1572L292.254 29.2158L280.584 58H276.995L265.35 29.2891L265.813 44.1572V58H261.126V22.4531H267.181ZM324.847 48.7227H309.954L306.609 58H301.775L315.35 22.4531H319.451L333.05 58H328.24L324.847 48.7227ZM311.37 44.8652H323.455L317.4 28.2393L311.37 44.8652ZM350.872 43.6201H342.522V58H337.811V22.4531H349.578C353.582 22.4531 356.658 23.3646 358.807 25.1875C360.971 27.0104 362.054 29.6634 362.054 33.1465C362.054 35.36 361.451 37.2887 360.247 38.9326C359.059 40.5765 357.399 41.8053 355.267 42.6191L363.616 57.707V58H358.587L350.872 43.6201ZM342.522 39.7871H349.725C352.052 39.7871 353.899 39.1849 355.267 37.9805C356.65 36.776 357.342 35.1647 357.342 33.1465C357.342 30.9492 356.683 29.2646 355.364 28.0928C354.062 26.9209 352.174 26.3268 349.7 26.3105H342.522V39.7871ZM377.679 41.4717L373.333 45.9883V58H368.646V22.4531H373.333V40.0312L389.129 22.4531H394.793L380.804 38.1514L395.892 58H390.276L377.679 41.4717ZM420.086 41.5693H404.681V54.167H422.576V58H399.993V22.4531H422.332V26.3105H404.681V37.7363H420.086V41.5693ZM453.46 26.3105H442.034V58H437.371V26.3105H425.97V22.4531H453.46V26.3105ZM463.763 58H459.075V22.4531H463.763V58ZM499.676 58H494.964L477.068 30.6074V58H472.356V22.4531H477.068L495.013 49.9678V22.4531H499.676V58ZM534.246 53.3369C533.042 55.0622 531.357 56.3561 529.192 57.2188C527.044 58.0651 524.537 58.4883 521.673 58.4883C518.776 58.4883 516.204 57.8128 513.958 56.4619C511.712 55.0947 509.97 53.1579 508.733 50.6514C507.513 48.1449 506.886 45.2396 506.854 41.9355V38.835C506.854 33.4801 508.099 29.3298 510.589 26.3838C513.095 23.4378 516.611 21.9648 521.136 21.9648C524.847 21.9648 527.833 22.917 530.096 24.8213C532.358 26.7093 533.742 29.3949 534.246 32.8779H529.559C528.68 28.1742 525.88 25.8223 521.16 25.8223C518.019 25.8223 515.634 26.929 514.007 29.1426C512.396 31.3398 511.582 34.5299 511.565 38.7129V41.6182C511.565 45.6058 512.477 48.7796 514.3 51.1396C516.123 53.4834 518.589 54.6553 521.697 54.6553C523.455 54.6553 524.993 54.46 526.312 54.0693C527.63 53.6787 528.72 53.0195 529.583 52.0918V44.1084H521.355V40.2998H534.246V53.3369Z" fill="white"/>
<path d="M552.408 180.081C553.375 180.081 554.22 179.788 554.942 179.202C555.665 178.616 556.065 177.884 556.144 177.005H558.707C558.658 177.913 558.346 178.777 557.77 179.598C557.193 180.418 556.422 181.072 555.455 181.561C554.498 182.049 553.482 182.293 552.408 182.293C550.25 182.293 548.531 181.575 547.252 180.14C545.982 178.694 545.348 176.722 545.348 174.222V173.768C545.348 172.225 545.631 170.853 546.197 169.651C546.764 168.45 547.574 167.518 548.629 166.854C549.693 166.189 550.948 165.857 552.394 165.857C554.171 165.857 555.646 166.39 556.817 167.454C557.999 168.519 558.629 169.9 558.707 171.6H556.144C556.065 170.574 555.675 169.734 554.972 169.08C554.278 168.416 553.419 168.084 552.394 168.084C551.017 168.084 549.947 168.582 549.186 169.578C548.434 170.564 548.058 171.995 548.058 173.87V174.383C548.058 176.209 548.434 177.615 549.186 178.602C549.938 179.588 551.012 180.081 552.408 180.081ZM564.698 182H561.988V159.5H564.698V182ZM571.993 182H569.283V166.15H571.993V182ZM569.063 161.946C569.063 161.507 569.195 161.136 569.459 160.833C569.732 160.53 570.133 160.379 570.66 160.379C571.188 160.379 571.588 160.53 571.861 160.833C572.135 161.136 572.271 161.507 572.271 161.946C572.271 162.386 572.135 162.752 571.861 163.045C571.588 163.338 571.188 163.484 570.66 163.484C570.133 163.484 569.732 163.338 569.459 163.045C569.195 162.752 569.063 162.386 569.063 161.946ZM582.921 182.293C580.772 182.293 579.024 181.59 577.677 180.184C576.329 178.768 575.655 176.878 575.655 174.515V174.017C575.655 172.444 575.953 171.043 576.549 169.812C577.154 168.572 577.994 167.605 579.068 166.912C580.152 166.209 581.324 165.857 582.584 165.857C584.645 165.857 586.246 166.536 587.389 167.894C588.531 169.251 589.103 171.194 589.103 173.724V174.852H578.365C578.404 176.414 578.858 177.679 579.728 178.646C580.606 179.603 581.72 180.081 583.067 180.081C584.024 180.081 584.835 179.886 585.499 179.495C586.163 179.104 586.744 178.587 587.242 177.942L588.897 179.231C587.569 181.272 585.577 182.293 582.921 182.293ZM582.584 168.084C581.49 168.084 580.572 168.484 579.83 169.285C579.088 170.076 578.629 171.189 578.453 172.625H586.393V172.42C586.314 171.043 585.943 169.979 585.279 169.227C584.615 168.465 583.717 168.084 582.584 168.084ZM594.815 166.15L594.903 168.143C596.114 166.619 597.696 165.857 599.649 165.857C602.999 165.857 604.688 167.747 604.718 171.526V182H602.008V171.512C601.998 170.369 601.734 169.524 601.217 168.978C600.709 168.431 599.913 168.157 598.829 168.157C597.95 168.157 597.179 168.392 596.515 168.86C595.851 169.329 595.333 169.944 594.962 170.706V182H592.252V166.15H594.815ZM612.481 162.312V166.15H615.44V168.245H612.481V178.074C612.481 178.709 612.613 179.188 612.877 179.51C613.141 179.822 613.59 179.979 614.225 179.979C614.537 179.979 614.967 179.92 615.514 179.803V182C614.801 182.195 614.107 182.293 613.434 182.293C612.223 182.293 611.31 181.927 610.694 181.194C610.079 180.462 609.771 179.422 609.771 178.074V168.245H606.886V166.15H609.771V162.312H612.481ZM625.196 182.293C623.048 182.293 621.3 181.59 619.952 180.184C618.604 178.768 617.931 176.878 617.931 174.515V174.017C617.931 172.444 618.229 171.043 618.824 169.812C619.43 168.572 620.27 167.605 621.344 166.912C622.428 166.209 623.6 165.857 624.859 165.857C626.92 165.857 628.521 166.536 629.664 167.894C630.807 169.251 631.378 171.194 631.378 173.724V174.852H620.641C620.68 176.414 621.134 177.679 622.003 178.646C622.882 179.603 623.995 180.081 625.343 180.081C626.3 180.081 627.11 179.886 627.774 179.495C628.438 179.104 629.02 178.587 629.518 177.942L631.173 179.231C629.845 181.272 627.853 182.293 625.196 182.293ZM624.859 168.084C623.766 168.084 622.848 168.484 622.105 169.285C621.363 170.076 620.904 171.189 620.729 172.625H628.668V172.42C628.59 171.043 628.219 169.979 627.555 169.227C626.891 168.465 625.992 168.084 624.859 168.084ZM643.756 177.796C643.756 177.063 643.478 176.497 642.921 176.097C642.374 175.687 641.412 175.335 640.035 175.042C638.668 174.749 637.579 174.397 636.769 173.987C635.968 173.577 635.372 173.089 634.981 172.522C634.601 171.956 634.41 171.282 634.41 170.501C634.41 169.202 634.957 168.104 636.051 167.205C637.154 166.307 638.561 165.857 640.27 165.857C642.066 165.857 643.521 166.321 644.635 167.249C645.758 168.177 646.319 169.363 646.319 170.809H643.595C643.595 170.066 643.277 169.427 642.643 168.89C642.018 168.353 641.227 168.084 640.27 168.084C639.283 168.084 638.512 168.299 637.955 168.729C637.398 169.158 637.12 169.72 637.12 170.413C637.12 171.067 637.379 171.561 637.896 171.893C638.414 172.225 639.347 172.542 640.694 172.845C642.052 173.147 643.15 173.509 643.99 173.929C644.83 174.349 645.45 174.856 645.851 175.452C646.261 176.038 646.466 176.756 646.466 177.605C646.466 179.021 645.899 180.159 644.767 181.019C643.634 181.868 642.164 182.293 640.357 182.293C639.088 182.293 637.965 182.068 636.988 181.619C636.012 181.17 635.245 180.545 634.688 179.744C634.142 178.934 633.868 178.06 633.868 177.122H636.578C636.627 178.03 636.988 178.753 637.662 179.29C638.346 179.817 639.244 180.081 640.357 180.081C641.383 180.081 642.203 179.876 642.818 179.466C643.443 179.046 643.756 178.489 643.756 177.796ZM658.771 182V168.245H656.266V166.15H658.771V164.524C658.771 162.825 659.225 161.512 660.133 160.584C661.041 159.656 662.325 159.192 663.985 159.192C664.61 159.192 665.23 159.275 665.846 159.441L665.699 161.639C665.24 161.551 664.752 161.507 664.234 161.507C663.355 161.507 662.677 161.766 662.198 162.283C661.72 162.791 661.48 163.523 661.48 164.48V166.15H664.864V168.245H661.48V182H658.771ZM674.093 182.293C671.944 182.293 670.196 181.59 668.849 180.184C667.501 178.768 666.827 176.878 666.827 174.515V174.017C666.827 172.444 667.125 171.043 667.721 169.812C668.326 168.572 669.166 167.605 670.24 166.912C671.324 166.209 672.496 165.857 673.756 165.857C675.816 165.857 677.418 166.536 678.561 167.894C679.703 169.251 680.274 171.194 680.274 173.724V174.852H669.537C669.576 176.414 670.03 177.679 670.899 178.646C671.778 179.603 672.892 180.081 674.239 180.081C675.196 180.081 676.007 179.886 676.671 179.495C677.335 179.104 677.916 178.587 678.414 177.942L680.069 179.231C678.741 181.272 676.749 182.293 674.093 182.293ZM673.756 168.084C672.662 168.084 671.744 168.484 671.002 169.285C670.26 170.076 669.801 171.189 669.625 172.625H677.564V172.42C677.486 171.043 677.115 169.979 676.451 169.227C675.787 168.465 674.889 168.084 673.756 168.084ZM686.368 182H683.658V159.5H686.368V182ZM693.663 182H690.953V166.15H693.663V182ZM690.733 161.946C690.733 161.507 690.865 161.136 691.129 160.833C691.402 160.53 691.803 160.379 692.33 160.379C692.857 160.379 693.258 160.53 693.531 160.833C693.805 161.136 693.941 161.507 693.941 161.946C693.941 162.386 693.805 162.752 693.531 163.045C693.258 163.338 692.857 163.484 692.33 163.484C691.803 163.484 691.402 163.338 691.129 163.045C690.865 162.752 690.733 162.386 690.733 161.946ZM700.562 179.788H709.835V182H697.252V180.008L705.997 168.392H697.384V166.15H709.396V168.069L700.562 179.788ZM719.239 182.293C717.091 182.293 715.343 181.59 713.995 180.184C712.647 178.768 711.974 176.878 711.974 174.515V174.017C711.974 172.444 712.271 171.043 712.867 169.812C713.473 168.572 714.312 167.605 715.387 166.912C716.471 166.209 717.643 165.857 718.902 165.857C720.963 165.857 722.564 166.536 723.707 167.894C724.85 169.251 725.421 171.194 725.421 173.724V174.852H714.684C714.723 176.414 715.177 177.679 716.046 178.646C716.925 179.603 718.038 180.081 719.386 180.081C720.343 180.081 721.153 179.886 721.817 179.495C722.481 179.104 723.062 178.587 723.561 177.942L725.216 179.231C723.888 181.272 721.896 182.293 719.239 182.293ZM718.902 168.084C717.809 168.084 716.891 168.484 716.148 169.285C715.406 170.076 714.947 171.189 714.771 172.625H722.711V172.42C722.633 171.043 722.262 169.979 721.598 169.227C720.934 168.465 720.035 168.084 718.902 168.084ZM737.799 177.796C737.799 177.063 737.521 176.497 736.964 176.097C736.417 175.687 735.455 175.335 734.078 175.042C732.711 174.749 731.622 174.397 730.812 173.987C730.011 173.577 729.415 173.089 729.024 172.522C728.644 171.956 728.453 171.282 728.453 170.501C728.453 169.202 729 168.104 730.094 167.205C731.197 166.307 732.604 165.857 734.312 165.857C736.109 165.857 737.564 166.321 738.678 167.249C739.801 168.177 740.362 169.363 740.362 170.809H737.638C737.638 170.066 737.32 169.427 736.686 168.89C736.061 168.353 735.27 168.084 734.312 168.084C733.326 168.084 732.555 168.299 731.998 168.729C731.441 169.158 731.163 169.72 731.163 170.413C731.163 171.067 731.422 171.561 731.939 171.893C732.457 172.225 733.39 172.542 734.737 172.845C736.095 173.147 737.193 173.509 738.033 173.929C738.873 174.349 739.493 174.856 739.894 175.452C740.304 176.038 740.509 176.756 740.509 177.605C740.509 179.021 739.942 180.159 738.81 181.019C737.677 181.868 736.207 182.293 734.4 182.293C733.131 182.293 732.008 182.068 731.031 181.619C730.055 181.17 729.288 180.545 728.731 179.744C728.185 178.934 727.911 178.06 727.911 177.122H730.621C730.67 178.03 731.031 178.753 731.705 179.29C732.389 179.817 733.287 180.081 734.4 180.081C735.426 180.081 736.246 179.876 736.861 179.466C737.486 179.046 737.799 178.489 737.799 177.796Z" fill="white"/>
</svg>
